#compare two stings if = say = if not show difference

def compare_strings(string1, string2):
    if string1 == string2:
        print("Strings are equal")
    else:
        print("Strings are not equal")

compare_strings("4d546864000000060000000101e04d54726b0000022a00ff03114c6f77204672657120547261636b2033302d31353020487a00ff5103070802009024647890240001901f5078902400816890265af09026008348902464789024008348901f508348901f00834890246478902400816890265af0902600834890246478902400834890275a789027008168902b5a78902b00834890265af09026008348902464789024000ff2f000", "4D546864000000060000000101E04D54726B0000022A00FF03114C6F77204672657120547261636B2033302D31353020487A00FF5103070802009024647890240001901F5078902400816890265AF09026008348902464789024008348901F508348901F00834890246478902400816890265AF0902600834890246478902400834890275A789027008168902B5A78902B00834890265AF09026008348902464789024000FF2F00")